<mxfile host="app.diagrams.net" agent="Mozilla/5.0 (Windows NT 10.0; Win64; x64) AppleWebKit/537.36 (KHTML, like Gecko) Chrome/138.0.0.0 Safari/537.36" version="28.0.7">
  <diagram name="Page-1" id="du_KJwaglrElgyTvK3Hh">
    <mxGraphModel dx="834" dy="459" grid="1" gridSize="10" guides="1" tooltips="1" connect="1" arrows="1" fold="1" page="1" pageScale="1" pageWidth="850" pageHeight="1100" math="0" shadow="0">
      <root>
        <mxCell id="0" />
        <mxCell id="1" parent="0" />
        <mxCell id="F_QDQh_Jzbl4AByI2fk9-1" value="" style="rounded=1;whiteSpace=wrap;html=1;" parent="1" vertex="1">
          <mxGeometry x="590" y="40" width="120" height="60" as="geometry" />
        </mxCell>
        <mxCell id="F_QDQh_Jzbl4AByI2fk9-2" value="&lt;font style=&quot;font-size: 18px;&quot;&gt;Start&lt;/font&gt;" style="text;html=1;align=center;verticalAlign=middle;whiteSpace=wrap;rounded=0;" parent="1" vertex="1">
          <mxGeometry x="620" y="55" width="60" height="30" as="geometry" />
        </mxCell>
        <mxCell id="F_QDQh_Jzbl4AByI2fk9-3" value="" style="endArrow=classic;html=1;rounded=0;" parent="1" edge="1">
          <mxGeometry width="50" height="50" relative="1" as="geometry">
            <mxPoint x="650" y="110" as="sourcePoint" />
            <mxPoint x="650" y="150" as="targetPoint" />
          </mxGeometry>
        </mxCell>
        <mxCell id="F_QDQh_Jzbl4AByI2fk9-4" value="" style="rounded=1;whiteSpace=wrap;html=1;" parent="1" vertex="1">
          <mxGeometry x="590" y="150" width="120" height="60" as="geometry" />
        </mxCell>
        <mxCell id="F_QDQh_Jzbl4AByI2fk9-5" value="&lt;font style=&quot;font-size: 18px;&quot;&gt;Login&lt;/font&gt;" style="text;html=1;align=center;verticalAlign=middle;whiteSpace=wrap;rounded=0;" parent="1" vertex="1">
          <mxGeometry x="620" y="165" width="60" height="30" as="geometry" />
        </mxCell>
        <mxCell id="F_QDQh_Jzbl4AByI2fk9-6" value="" style="endArrow=classic;html=1;rounded=0;exitX=0.5;exitY=1;exitDx=0;exitDy=0;" parent="1" source="F_QDQh_Jzbl4AByI2fk9-4" edge="1">
          <mxGeometry width="50" height="50" relative="1" as="geometry">
            <mxPoint x="400" y="320" as="sourcePoint" />
            <mxPoint x="460" y="250" as="targetPoint" />
          </mxGeometry>
        </mxCell>
        <mxCell id="F_QDQh_Jzbl4AByI2fk9-7" value="" style="rhombus;whiteSpace=wrap;html=1;" parent="1" vertex="1">
          <mxGeometry x="270" y="250" width="320" height="80" as="geometry" />
        </mxCell>
        <mxCell id="F_QDQh_Jzbl4AByI2fk9-8" value="&lt;font style=&quot;font-size: 14px;&quot;&gt;siapa usernya&lt;/font&gt;" style="text;html=1;align=center;verticalAlign=middle;whiteSpace=wrap;rounded=0;" parent="1" vertex="1">
          <mxGeometry x="375" y="275" width="110" height="30" as="geometry" />
        </mxCell>
        <mxCell id="F_QDQh_Jzbl4AByI2fk9-9" value="" style="endArrow=classic;html=1;rounded=0;exitX=0.5;exitY=1;exitDx=0;exitDy=0;" parent="1" source="F_QDQh_Jzbl4AByI2fk9-7" edge="1">
          <mxGeometry width="50" height="50" relative="1" as="geometry">
            <mxPoint x="400" y="330" as="sourcePoint" />
            <mxPoint x="430" y="410" as="targetPoint" />
          </mxGeometry>
        </mxCell>
        <mxCell id="F_QDQh_Jzbl4AByI2fk9-13" value="Pilih Kelas dan Mapel" style="rounded=1;whiteSpace=wrap;html=1;" parent="1" vertex="1">
          <mxGeometry x="340" y="420" width="180" height="40" as="geometry" />
        </mxCell>
        <mxCell id="F_QDQh_Jzbl4AByI2fk9-16" value="" style="endArrow=classic;html=1;rounded=0;exitX=0.96;exitY=0.573;exitDx=0;exitDy=0;exitPerimeter=0;" parent="1" source="F_QDQh_Jzbl4AByI2fk9-7" target="F_QDQh_Jzbl4AByI2fk9-17" edge="1">
          <mxGeometry width="50" height="50" relative="1" as="geometry">
            <mxPoint x="570" y="300" as="sourcePoint" />
            <mxPoint x="660" y="460" as="targetPoint" />
          </mxGeometry>
        </mxCell>
        <mxCell id="F_QDQh_Jzbl4AByI2fk9-17" value="Lihat Nilai" style="rounded=1;whiteSpace=wrap;html=1;" parent="1" vertex="1">
          <mxGeometry x="610" y="440" width="120" height="40" as="geometry" />
        </mxCell>
        <mxCell id="F_QDQh_Jzbl4AByI2fk9-18" value="" style="endArrow=classic;html=1;rounded=0;exitX=0.5;exitY=1;exitDx=0;exitDy=0;" parent="1" edge="1">
          <mxGeometry width="50" height="50" relative="1" as="geometry">
            <mxPoint x="429.5" y="460" as="sourcePoint" />
            <mxPoint x="430" y="520" as="targetPoint" />
          </mxGeometry>
        </mxCell>
        <mxCell id="F_QDQh_Jzbl4AByI2fk9-19" value="Input Nilai siswa" style="rounded=1;whiteSpace=wrap;html=1;" parent="1" vertex="1">
          <mxGeometry x="335" y="530" width="190" height="40" as="geometry" />
        </mxCell>
        <mxCell id="F_QDQh_Jzbl4AByI2fk9-20" value="" style="endArrow=classic;html=1;rounded=0;" parent="1" edge="1">
          <mxGeometry width="50" height="50" relative="1" as="geometry">
            <mxPoint x="300" y="300" as="sourcePoint" />
            <mxPoint x="200" y="410" as="targetPoint" />
          </mxGeometry>
        </mxCell>
        <mxCell id="F_QDQh_Jzbl4AByI2fk9-21" value="Kelola Data User" style="rounded=1;whiteSpace=wrap;html=1;" parent="1" vertex="1">
          <mxGeometry x="100" y="420" width="190" height="40" as="geometry" />
        </mxCell>
        <mxCell id="F_QDQh_Jzbl4AByI2fk9-22" value="" style="endArrow=classic;html=1;rounded=0;" parent="1" edge="1">
          <mxGeometry width="50" height="50" relative="1" as="geometry">
            <mxPoint x="190" y="460" as="sourcePoint" />
            <mxPoint x="190" y="520" as="targetPoint" />
          </mxGeometry>
        </mxCell>
        <mxCell id="F_QDQh_Jzbl4AByI2fk9-23" value="Kelola Data Kelas&lt;span style=&quot;white-space: pre;&quot;&gt;&#x9;&lt;/span&gt;" style="rounded=1;whiteSpace=wrap;html=1;" parent="1" vertex="1">
          <mxGeometry x="100" y="530" width="190" height="40" as="geometry" />
        </mxCell>
        <mxCell id="F_QDQh_Jzbl4AByI2fk9-24" value="" style="endArrow=classic;html=1;rounded=0;entryX=1;entryY=0.75;entryDx=0;entryDy=0;" parent="1" target="F_QDQh_Jzbl4AByI2fk9-29" edge="1">
          <mxGeometry width="50" height="50" relative="1" as="geometry">
            <mxPoint x="670" y="480" as="sourcePoint" />
            <mxPoint x="610" y="670" as="targetPoint" />
            <Array as="points">
              <mxPoint x="630" y="660" />
            </Array>
          </mxGeometry>
        </mxCell>
        <mxCell id="F_QDQh_Jzbl4AByI2fk9-25" value="" style="endArrow=classic;html=1;rounded=0;exitX=0.5;exitY=1;exitDx=0;exitDy=0;" parent="1" edge="1">
          <mxGeometry width="50" height="50" relative="1" as="geometry">
            <mxPoint x="425" y="570" as="sourcePoint" />
            <mxPoint x="426" y="650" as="targetPoint" />
          </mxGeometry>
        </mxCell>
        <mxCell id="F_QDQh_Jzbl4AByI2fk9-26" value="" style="endArrow=classic;html=1;rounded=0;exitX=0.5;exitY=1;exitDx=0;exitDy=0;" parent="1" edge="1">
          <mxGeometry width="50" height="50" relative="1" as="geometry">
            <mxPoint x="190" y="570" as="sourcePoint" />
            <mxPoint x="200" y="640" as="targetPoint" />
          </mxGeometry>
        </mxCell>
        <mxCell id="F_QDQh_Jzbl4AByI2fk9-27" value="Lihat Rekap Nilai" style="rounded=1;whiteSpace=wrap;html=1;" parent="1" vertex="1">
          <mxGeometry x="330" y="650" width="190" height="40" as="geometry" />
        </mxCell>
        <mxCell id="F_QDQh_Jzbl4AByI2fk9-28" value="Kelola Data Mapel" style="rounded=1;whiteSpace=wrap;html=1;" parent="1" vertex="1">
          <mxGeometry x="110" y="640" width="190" height="40" as="geometry" />
        </mxCell>
        <mxCell id="F_QDQh_Jzbl4AByI2fk9-29" value="Logout" style="rounded=1;whiteSpace=wrap;html=1;" parent="1" vertex="1">
          <mxGeometry x="350" y="750" width="160" height="40" as="geometry" />
        </mxCell>
        <mxCell id="F_QDQh_Jzbl4AByI2fk9-30" value="" style="endArrow=classic;html=1;rounded=0;entryX=0.44;entryY=0.025;entryDx=0;entryDy=0;entryPerimeter=0;" parent="1" target="F_QDQh_Jzbl4AByI2fk9-29" edge="1">
          <mxGeometry width="50" height="50" relative="1" as="geometry">
            <mxPoint x="420" y="690" as="sourcePoint" />
            <mxPoint x="470" y="640" as="targetPoint" />
          </mxGeometry>
        </mxCell>
        <mxCell id="F_QDQh_Jzbl4AByI2fk9-31" value="" style="endArrow=classic;html=1;rounded=0;entryX=0;entryY=0.5;entryDx=0;entryDy=0;" parent="1" target="F_QDQh_Jzbl4AByI2fk9-29" edge="1">
          <mxGeometry width="50" height="50" relative="1" as="geometry">
            <mxPoint x="200" y="680" as="sourcePoint" />
            <mxPoint x="250" y="630" as="targetPoint" />
          </mxGeometry>
        </mxCell>
        <mxCell id="F_QDQh_Jzbl4AByI2fk9-32" value="" style="endArrow=classic;html=1;rounded=0;" parent="1" edge="1">
          <mxGeometry width="50" height="50" relative="1" as="geometry">
            <mxPoint x="420" y="790" as="sourcePoint" />
            <mxPoint x="420" y="840" as="targetPoint" />
          </mxGeometry>
        </mxCell>
        <mxCell id="F_QDQh_Jzbl4AByI2fk9-33" value="END" style="rounded=1;whiteSpace=wrap;html=1;" parent="1" vertex="1">
          <mxGeometry x="365" y="840" width="120" height="60" as="geometry" />
        </mxCell>
        <mxCell id="_wu9dqt2IgtQeam00Z7R-1" value="admin" style="text;html=1;align=center;verticalAlign=middle;whiteSpace=wrap;rounded=0;" vertex="1" parent="1">
          <mxGeometry x="230" y="340" width="60" height="30" as="geometry" />
        </mxCell>
        <mxCell id="_wu9dqt2IgtQeam00Z7R-2" value="guru" style="text;html=1;align=center;verticalAlign=middle;whiteSpace=wrap;rounded=0;" vertex="1" parent="1">
          <mxGeometry x="420" y="350" width="60" height="30" as="geometry" />
        </mxCell>
        <mxCell id="_wu9dqt2IgtQeam00Z7R-3" value="murid" style="text;html=1;align=center;verticalAlign=middle;whiteSpace=wrap;rounded=0;" vertex="1" parent="1">
          <mxGeometry x="610" y="350" width="60" height="30" as="geometry" />
        </mxCell>
      </root>
    </mxGraphModel>
  </diagram>
</mxfile>
